<svg xmlns="http://www.w3.org/2000/svg" viewBox="0 0 512 512" width="512" height="512">
  <defs>
    <linearGradient id="bg" x1="0%" y1="0%" x2="100%" y2="100%">
      <stop offset="0%" style="stop-color:#7054a0"/>
      <stop offset="100%" style="stop-color:#5a3d8a"/>
    </linearGradient>
  </defs>
  <!-- Background circle -->
  <circle cx="256" cy="256" r="256" fill="url(#bg)"/>
  <!-- Penguin body (main black) -->
  <ellipse cx="256" cy="310" rx="95" ry="120" fill="#2a2a3e"/>
  <!-- Penguin head -->
  <circle cx="256" cy="185" r="72" fill="#2a2a3e"/>
  <!-- White belly -->
  <ellipse cx="256" cy="330" rx="62" ry="90" fill="#f0eef5"/>
  <!-- Left eye -->
  <circle cx="233" cy="175" r="12" fill="#f0eef5"/>
  <circle cx="236" cy="174" r="6" fill="#2a2a3e"/>
  <circle cx="238" cy="172" r="2.5" fill="#f0eef5"/>
  <!-- Right eye -->
  <circle cx="279" cy="175" r="12" fill="#f0eef5"/>
  <circle cx="282" cy="174" r="6" fill="#2a2a3e"/>
  <circle cx="284" cy="172" r="2.5" fill="#f0eef5"/>
  <!-- Beak -->
  <path d="M245 198 L256 215 L267 198 Z" fill="#f5a862" stroke="#e89850" stroke-width="1"/>
  <!-- Left wing -->
  <path d="M161 270 Q148 330 170 390 Q180 400 185 385 Q175 330 175 280 Z" fill="#2a2a3e"/>
  <!-- Right wing -->
  <path d="M351 270 Q364 330 342 390 Q332 400 327 385 Q337 330 337 280 Z" fill="#2a2a3e"/>
  <!-- Left foot -->
  <path d="M215 420 L195 445 L240 445 L230 420 Z" fill="#f5a862" stroke="#e89850" stroke-width="1"/>
  <!-- Right foot -->
  <path d="M282 420 L272 445 L317 445 L297 420 Z" fill="#f5a862" stroke="#e89850" stroke-width="1"/>
  <!-- Cheek blush -->
  <ellipse cx="222" cy="198" rx="14" ry="8" fill="#f0a0c4" opacity="0.35"/>
  <ellipse cx="290" cy="198" rx="14" ry="8" fill="#f0a0c4" opacity="0.35"/>
</svg>
